    <svg
                width="597px"
                height="604px"
                viewBox="0 0 597 604"
                version="1.1"
                xmlns="http://www.w3.org/2000/svg"
                xmlns:xlink="http://www.w3.org/1999/xlink"
              >
                <title>Illustration</title>
                <defs>
                  <linearGradient
                    x1="2.18627119%"
                    y1="48.0653332%"
                    x2="98.9370052%"
                    y2="52.4152719%"
                    id="linearGradient-1"
                  >
                    <stop stop-color="#444B8C" offset="0%"></stop>
                    <stop stop-color="#26264F" offset="100%"></stop>
                  </linearGradient>
                  <linearGradient
                    x1="75.0021279%"
                    y1="-2.28657034%"
                    x2="30.5153105%"
                    y2="102.949299%"
                    id="linearGradient-2"
                  >
                    <stop stop-color="#FFC444" offset="0%"></stop>
                    <stop stop-color="#F36F56" offset="100%"></stop>
                  </linearGradient>
                  <linearGradient
                    x1="44.8102842%"
                    y1="103.883979%"
                    x2="53.3866945%"
                    y2="12.9005555%"
                    id="linearGradient-3"
                  >
                    <stop stop-color="#311944" offset="0%"></stop>
                    <stop stop-color="#6B3976" offset="100%"></stop>
                  </linearGradient>
                  <linearGradient
                    x1="0.00473466251%"
                    y1="49.9945773%"
                    x2="100.001087%"
                    y2="49.9945773%"
                    id="linearGradient-4"
                  >
                    <stop stop-color="#444B8C" offset="0%"></stop>
                    <stop stop-color="#26264F" offset="100%"></stop>
                  </linearGradient>
                  <linearGradient
                    x1="25.9928674%"
                    y1="115.11252%"
                    x2="85.8051904%"
                    y2="-56.1606434%"
                    id="linearGradient-5"
                  >
                    <stop stop-color="#FFC444" offset="0%"></stop>
                    <stop stop-color="#F36F56" offset="100%"></stop>
                  </linearGradient>
                  <linearGradient
                    x1="45.000035%"
                    y1="103.96162%"
                    x2="51.9276376%"
                    y2="12.9799063%"
                    id="linearGradient-6"
                  >
                    <stop stop-color="#AA80F9" offset="0%"></stop>
                    <stop stop-color="#6165D7" offset="100%"></stop>
                  </linearGradient>
                  <linearGradient
                    x1="47.8416115%"
                    y1="61.2989772%"
                    x2="56.3475596%"
                    y2="5.43882002%"
                    id="linearGradient-7"
                  >
                    <stop stop-color="#311944" offset="0%"></stop>
                    <stop stop-color="#6B3976" offset="100%"></stop>
                  </linearGradient>
                  <linearGradient
                    x1="100%"
                    y1="50.0000976%"
                    x2="-0.000142809067%"
                    y2="50.0000976%"
                    id="linearGradient-8"
                  >
                    <stop stop-color="#AA80F9" offset="0%"></stop>
                    <stop stop-color="#6165D7" offset="100%"></stop>
                  </linearGradient>
                  <linearGradient
                    x1="48.6530462%"
                    y1="64.4564961%"
                    x2="53.9400082%"
                    y2="8.36783777%"
                    id="linearGradient-9"
                  >
                    <stop stop-color="#AA80F9" offset="0%"></stop>
                    <stop stop-color="#6165D7" offset="100%"></stop>
                  </linearGradient>
                  <linearGradient
                    x1="40.6990487%"
                    y1="13.7117069%"
                    x2="65.1875383%"
                    y2="118.92495%"
                    id="linearGradient-10"
                  >
                    <stop stop-color="#AA80F9" offset="0%"></stop>
                    <stop stop-color="#6165D7" offset="100%"></stop>
                  </linearGradient>
                  <linearGradient
                    x1="10.0724871%"
                    y1="-104.179275%"
                    x2="53.7535511%"
                    y2="88.727605%"
                    id="linearGradient-11"
                  >
                    <stop stop-color="#AA80F9" offset="0%"></stop>
                    <stop stop-color="#6165D7" offset="100%"></stop>
                  </linearGradient>
                  <linearGradient
                    x1="33.9521123%"
                    y1="11.9478761%"
                    x2="75.3223058%"
                    y2="143.081089%"
                    id="linearGradient-12"
                  >
                    <stop stop-color="#AA80F9" offset="0%"></stop>
                    <stop stop-color="#6165D7" offset="100%"></stop>
                  </linearGradient>
                  <linearGradient
                    x1="47.3830066%"
                    y1="109.554127%"
                    x2="52.906774%"
                    y2="-11.6678726%"
                    id="linearGradient-13"
                  >
                    <stop stop-color="#FFC444" offset="0%"></stop>
                    <stop stop-color="#F36F56" offset="100%"></stop>
                  </linearGradient>
                  <linearGradient
                    x1="-21.6707377%"
                    y1="-81.3748288%"
                    x2="85.4239154%"
                    y2="101.418766%"
                    id="linearGradient-14"
                  >
                    <stop stop-color="#444B8C" offset="0%"></stop>
                    <stop stop-color="#26264F" offset="100%"></stop>
                  </linearGradient>
                  <linearGradient
                    x1="47.6609595%"
                    y1="86.5110351%"
                    x2="51.9918897%"
                    y2="11.9633866%"
                    id="linearGradient-15"
                  >
                    <stop stop-color="#FFC444" offset="0%"></stop>
                    <stop stop-color="#F36F56" offset="100%"></stop>
                  </linearGradient>
                  <linearGradient
                    x1="78.955996%"
                    y1="120.930499%"
                    x2="7.21235053%"
                    y2="1.63126059%"
                    id="linearGradient-16"
                  >
                    <stop stop-color="#FFC444" offset="0%"></stop>
                    <stop stop-color="#F36F56" offset="100%"></stop>
                  </linearGradient>
                  <linearGradient
                    x1="98.4826478%"
                    y1="162.02922%"
                    x2="41.0450464%"
                    y2="8.69922307%"
                    id="linearGradient-17"
                  >
                    <stop stop-color="#311944" offset="0%"></stop>
                    <stop stop-color="#6B3976" offset="100%"></stop>
                  </linearGradient>
                  <linearGradient
                    x1="54.3730148%"
                    y1="22.0787693%"
                    x2="46.4024263%"
                    y2="286.130495%"
                    id="linearGradient-18"
                  >
                    <stop stop-color="#FFC444" offset="0%"></stop>
                    <stop stop-color="#F36F56" offset="100%"></stop>
                  </linearGradient>
                  <linearGradient
                    x1="100.992619%"
                    y1="159.155716%"
                    x2="17.6831389%"
                    y2="-27.0258219%"
                    id="linearGradient-19"
                  >
                    <stop stop-color="#311944" offset="0%"></stop>
                    <stop stop-color="#6B3976" offset="100%"></stop>
                  </linearGradient>
                  <linearGradient
                    x1="46.3022318%"
                    y1="29.4038321%"
                    x2="68.0248487%"
                    y2="86.6299507%"
                    id="linearGradient-20"
                  >
                    <stop stop-color="#FFC444" offset="0%"></stop>
                    <stop stop-color="#F36F56" offset="100%"></stop>
                  </linearGradient>
                  <linearGradient
                    x1="73.717783%"
                    y1="120.744316%"
                    x2="19.976323%"
                    y2="-46.3858653%"
                    id="linearGradient-21"
                  >
                    <stop stop-color="#AA80F9" offset="0%"></stop>
                    <stop stop-color="#6165D7" offset="100%"></stop>
                  </linearGradient>
                  <linearGradient
                    x1="32.2599169%"
                    y1="18.1210223%"
                    x2="81.7424049%"
                    y2="135.730948%"
                    id="linearGradient-22"
                  >
                    <stop stop-color="#E38DDD" offset="0%"></stop>
                    <stop stop-color="#9571F6" offset="100%"></stop>
                  </linearGradient>
                  <linearGradient
                    x1="42.7767917%"
                    y1="29.3052457%"
                    x2="76.8035189%"
                    y2="110.178767%"
                    id="linearGradient-23"
                  >
                    <stop stop-color="#E38DDD" offset="0%"></stop>
                    <stop stop-color="#9571F6" offset="100%"></stop>
                  </linearGradient>
                  <linearGradient
                    x1="36.5740099%"
                    y1="49.84473%"
                    x2="89.3613452%"
                    y2="46.4338179%"
                    id="linearGradient-24"
                  >
                    <stop stop-color="#444B8C" offset="0%"></stop>
                    <stop stop-color="#26264F" offset="100%"></stop>
                  </linearGradient>
                  <linearGradient
                    x1="60.6987675%"
                    y1="11.2678349%"
                    x2="4.64731547%"
                    y2="204.077658%"
                    id="linearGradient-25"
                  >
                    <stop stop-color="#FFC444" offset="0%"></stop>
                    <stop stop-color="#F36F56" offset="100%"></stop>
                  </linearGradient>
                  <linearGradient
                    x1="61.2791708%"
                    y1="12.3198838%"
                    x2="-1.12595146%"
                    y2="220.786236%"
                    id="linearGradient-26"
                  >
                    <stop stop-color="#FFC444" offset="0%"></stop>
                    <stop stop-color="#F36F56" offset="100%"></stop>
                  </linearGradient>
                  <linearGradient
                    x1="1.28984386e-13%"
                    y1="50%"
                    x2="100%"
                    y2="50%"
                    id="linearGradient-27"
                  >
                    <stop stop-color="#FF9085" offset="0%"></stop>
                    <stop stop-color="#FB6FBB" offset="100%"></stop>
                  </linearGradient>
                  <linearGradient
                    x1="0%"
                    y1="50%"
                    x2="100%"
                    y2="50%"
                    id="linearGradient-28"
                  >
                    <stop stop-color="#FF9085" offset="0%"></stop>
                    <stop stop-color="#FB6FBB" offset="100%"></stop>
                  </linearGradient>
                  <linearGradient
                    x1="0%"
                    y1="50%"
                    x2="100%"
                    y2="50%"
                    id="linearGradient-29"
                  >
                    <stop stop-color="#FF9085" offset="0%"></stop>
                    <stop stop-color="#FB6FBB" offset="100%"></stop>
                  </linearGradient>
                  <linearGradient
                    x1="-0.00429011915%"
                    y1="50.0067824%"
                    x2="99.9960351%"
                    y2="50.0067824%"
                    id="linearGradient-30"
                  >
                    <stop stop-color="#FFC444" offset="0%"></stop>
                    <stop stop-color="#F36F56" offset="100%"></stop>
                  </linearGradient>
                  <linearGradient
                    x1="-0.00448514794%"
                    y1="49.9976629%"
                    x2="99.9977661%"
                    y2="49.9976629%"
                    id="linearGradient-31"
                  >
                    <stop stop-color="#FFC444" offset="0%"></stop>
                    <stop stop-color="#F36F56" offset="100%"></stop>
                  </linearGradient>
                  <linearGradient
                    x1="0.000262243712%"
                    y1="49.9940923%"
                    x2="99.9945609%"
                    y2="49.9940923%"
                    id="linearGradient-32"
                  >
                    <stop stop-color="#FFC444" offset="0%"></stop>
                    <stop stop-color="#F36F56" offset="100%"></stop>
                  </linearGradient>
                  <linearGradient
                    x1="0%"
                    y1="49.9979963%"
                    x2="100%"
                    y2="49.9979963%"
                    id="linearGradient-33"
                  >
                    <stop stop-color="#FFC444" offset="0%"></stop>
                    <stop stop-color="#F36F56" offset="100%"></stop>
                  </linearGradient>
                  <linearGradient
                    x1="-0.0231100274%"
                    y1="50.0117836%"
                    x2="99.9863155%"
                    y2="50.0117836%"
                    id="linearGradient-34"
                  >
                    <stop stop-color="#FFC444" offset="0%"></stop>
                    <stop stop-color="#F36F56" offset="100%"></stop>
                  </linearGradient>
                  <linearGradient
                    x1="-0.00117733813%"
                    y1="50.008355%"
                    x2="99.9998427%"
                    y2="50.008355%"
                    id="linearGradient-35"
                  >
                    <stop stop-color="#FFC444" offset="0%"></stop>
                    <stop stop-color="#F36F56" offset="100%"></stop>
                  </linearGradient>
                  <linearGradient
                    x1="-0.00231274697%"
                    y1="49.9937927%"
                    x2="99.9892167%"
                    y2="49.9937927%"
                    id="linearGradient-36"
                  >
                    <stop stop-color="#FFC444" offset="0%"></stop>
                    <stop stop-color="#F36F56" offset="100%"></stop>
                  </linearGradient>
                  <linearGradient
                    x1="-0.00131991897%"
                    y1="50.0014026%"
                    x2="100.003484%"
                    y2="50.0014026%"
                    id="linearGradient-37"
                  >
                    <stop stop-color="#FFC444" offset="0%"></stop>
                    <stop stop-color="#F36F56" offset="100%"></stop>
                  </linearGradient>
                  <linearGradient
                    x1="-10.8882102%"
                    y1="38.2634193%"
                    x2="9.43596818%"
                    y2="44.73525%"
                    id="linearGradient-38"
                  >
                    <stop stop-color="#AB316D" offset="0%"></stop>
                    <stop stop-color="#792D3D" offset="100%"></stop>
                  </linearGradient>
                  <linearGradient
                    x1="38.4223527%"
                    y1="12.7054194%"
                    x2="49.852011%"
                    y2="61.4142116%"
                    id="linearGradient-39"
                  >
                    <stop stop-color="#FF9085" offset="0%"></stop>
                    <stop stop-color="#FB6FBB" offset="100%"></stop>
                  </linearGradient>
                  <linearGradient
                    x1="41.3152441%"
                    y1="10.0271137%"
                    x2="49.6559728%"
                    y2="58.7359058%"
                    id="linearGradient-40"
                  >
                    <stop stop-color="#FF9085" offset="0%"></stop>
                    <stop stop-color="#FB6FBB" offset="100%"></stop>
                  </linearGradient>
                  <linearGradient
                    x1="21.4072377%"
                    y1="36.4091599%"
                    x2="93.1218465%"
                    y2="84.8664999%"
                    id="linearGradient-41"
                  >
                    <stop stop-color="#FF9085" offset="0%"></stop>
                    <stop stop-color="#FB6FBB" offset="100%"></stop>
                  </linearGradient>
                  <linearGradient
                    x1="36.4096279%"
                    y1="-2.98683418%"
                    x2="54.0126333%"
                    y2="103.548255%"
                    id="linearGradient-42"
                  >
                    <stop stop-color="#AB316D" offset="0%"></stop>
                    <stop stop-color="#792D3D" offset="100%"></stop>
                  </linearGradient>
                  <linearGradient
                    x1="11.3292501%"
                    y1="31.1943478%"
                    x2="93.2080781%"
                    y2="94.0988294%"
                    id="linearGradient-43"
                  >
                    <stop stop-color="#FF9085" offset="0%"></stop>
                    <stop stop-color="#FB6FBB" offset="100%"></stop>
                  </linearGradient>
                  <linearGradient
                    x1="-2.76093731%"
                    y1="1.00533437%"
                    x2="12.9942708%"
                    y2="15.6466096%"
                    id="linearGradient-44"
                  >
                    <stop stop-color="#AB316D" offset="0%"></stop>
                    <stop stop-color="#792D3D" offset="100%"></stop>
                  </linearGradient>
                  <linearGradient
                    x1="-17.4528302%"
                    y1="24.9255214%"
                    x2="2.7060576%"
                    y2="32.4230387%"
                    id="linearGradient-45"
                  >
                    <stop stop-color="#AB316D" offset="0%"></stop>
                    <stop stop-color="#792D3D" offset="100%"></stop>
                  </linearGradient>
                </defs>
                <g
                  id="Page-1"
                  stroke="none"
                  stroke-width="1"
                  fill="none"
                  fill-rule="evenodd"
                >
                  <g
                    id="V4-Dashboard-Chat-Typing-and-Resend"
                    transform="translate(-452.000000, -84.000000)"
                    fill-rule="nonzero"
                  >
                    <g
                      id="Illustration"
                      transform="translate(452.569272, 84.166611)"
                    >
                      <path
                        d="M306.011774,8.76759927 C243.781003,33.5112758 237.81917,96.7584564 181.788291,102.192419 C132.965434,106.922553 114.407159,61.1365049 80.1473208,69.3402354 C27.9647224,81.8373136 -4.84398922,206.249173 16.1155795,308.548429 C37.7562049,414.178446 128.682437,554.600311 279.318081,564.182715 C448.443687,574.947136 576.407806,413.375254 584.220291,271.589206 C585.064884,256.256117 590.055849,127.780688 491.834652,51.8873836 C486.926491,48.0949955 390.13779,-24.6828374 306.011774,8.76759927 Z"
                        id="Path"
                        fill="#F4F7FA"
                      ></path>
                      <path
                        d="M509.372377,572.390586 C513.818911,575.984246 514.071461,578.538726 513.926555,579.782845 C513.694706,581.788753 512.183547,582.569173 508.562976,586.355351 C503.669305,591.478801 504.422814,592.163998 501.924226,594.01465 C496.419881,598.10306 488.638447,597.83188 488.168539,596.442855 C487.839396,595.465777 491.358534,594.670866 495.36414,590.025605 C497.828874,587.205842 499.634267,583.872265 500.649057,580.267243 C501.136874,578.4483 501.404451,576.577348 501.446038,574.694586 L509.372377,572.390586 Z"
                        id="Path"
                        fill="url(#linearGradient-1)"
                      ></path>
                      <path
                        d="M494.478146,561.437788 L503.234588,576.698424 C505.344,577.62996 507.360259,577.160052 509.237822,574.437896 L505.824259,555.887901 L494.478146,561.437788 Z"
                        id="Path"
                        fill="url(#linearGradient-2)"
                      ></path>
                      <path
                        d="M483.862771,365.715783 C475.331968,380.117335 461.493477,407.914381 458.692658,445.498769 C455.9291,482.596688 465.287935,510.871923 469.206598,521.414845 C476.553315,541.171696 489.325714,561.915977 496.738674,571.804753 C501.744129,569.711901 504.689854,566.422543 509.69324,564.335901 C508.941801,561.613745 506.62124,552.621314 505.161833,547.263944 C504.029499,543.123783 501.942857,535.437572 501.51435,533.795998 C497.92069,520.056872 500.756701,509.745799 499.769272,492.752505 C498.616237,472.933551 494.07448,475.237551 494.757606,463.338726 C495.784367,445.567082 505.85117,441.42692 517.416712,415.710305 C525.326491,398.114618 533.635795,379.620516 525.999267,369.512311 C516.381671,356.789594 487.127288,364.788386 483.862771,365.715783 Z"
                        id="Path"
                        fill="url(#linearGradient-3)"
                      ></path>
                      <path
                        d="M545.598792,586.347071 C548.265057,588.044537 549.87558,592.077055 548.660442,594.614974 C547.466005,597.111491 544.420916,596.322791 537.024518,598.595739 C529.100248,601.030155 527.533197,603.489411 521.693499,603.485276 C519.333606,603.485276 515.056819,603.071254 514.698695,601.489712 C514.448216,600.373939 516.263677,599.264376 522.24414,595.246349 C530.731472,589.545346 530.642458,589.38388 532.538652,588.510305 C537.289488,586.31395 542.075515,584.107243 545.598792,586.347071 Z"
                        id="Path"
                        fill="url(#linearGradient-4)"
                      ></path>
                      <path
                        d="M532.925757,574.261939 L536.177854,589.114769 C536.631202,589.779265 541.261973,591.369087 544.50579,589.114769 L543.311353,574.261939 L532.925757,574.261939 Z"
                        id="Path"
                        fill="url(#linearGradient-5)"
                      ></path>
                      <path
                        d="M525.990987,369.512311 C516.379601,356.789594 487.127288,364.788386 483.862771,365.715783 C479.251913,373.517281 475.218946,381.646175 471.79627,390.037163 C482.163235,387.998133 486.66152,389.848785 488.758512,392.314252 C496.89807,401.857324 471.415375,422.926607 476.656819,454.901076 C478.706199,467.406435 484.053218,473.034985 483.07407,488.305971 C482.347472,499.672785 478.815914,505.42554 476.375288,513.745195 C474.628334,519.774821 473.735714,526.019673 473.723515,532.29726 C481.051601,548.408699 490.683687,563.731438 496.744884,571.810963 C501.75034,569.718111 504.696065,566.428753 509.69945,564.342111 C508.948011,561.619955 506.62745,552.627524 505.168043,547.270155 C504.035709,543.129993 501.949067,535.443783 501.520561,533.802208 C497.9269,520.063082 500.762911,509.752009 499.775482,492.758715 C498.622447,472.939761 494.08069,475.243761 494.763817,463.344936 C495.784367,445.567082 505.85117,441.42692 517.416712,415.710305 C525.31821,398.108408 533.627515,379.620516 525.990987,369.512311 Z"
                        id="Path"
                        fill="url(#linearGradient-6)"
                        opacity="0.3"
                        style="mix-blend-mode: multiply;"
                      ></path>
                      <path
                        d="M506.708183,373.528268 C504.965801,443.206008 513.005659,512.783738 530.592776,580.227912 C531.576065,580.784764 535.026889,582.571243 539.444442,581.734931 C541.731168,581.29307 543.856905,580.244144 545.598792,578.698122 C544.480447,570.685132 544.172519,562.579831 544.679677,554.505087 C545.78717,536.992203 549.910771,533.423384 551.67862,515.299826 C553.231181,499.405745 551.595817,486.422198 550.802976,480.400332 C548.36442,461.868969 545.052291,461.488074 544.986049,450.38416 C544.884615,433.295642 552.6971,427.174413 556.992518,410.893227 C559.85958,400.031513 561.379019,383.81657 554.173067,361.579761 L506.708183,373.528268 Z"
                        id="Path"
                        fill="url(#linearGradient-7)"
                      ></path>
                      <path
                        d="M493.997887,241.363955 C488.267903,241.363955 467.776173,244.173055 458.160647,252.641756 C419.307299,286.864332 431.36759,323.096958 443.860528,335.080656 C452.36028,343.232634 472.518728,340.763028 479.465919,331.08747 C484.572809,323.970532 480.896345,315.23065 479.132636,302.806025 C477.232302,289.437443 484.502426,266.56719 493.997887,241.363955 Z"
                        id="Path"
                        fill="url(#linearGradient-8)"
                      ></path>
                      <path
                        d="M554.173067,361.579761 L540.278685,365.076128 C542.700679,373.420624 545.02745,385.944613 542.228701,400.163998 C538.368,419.796645 528.38607,424.104483 526.910102,441.809885 C525.589391,457.737087 533.109995,460.987114 536.709865,482.232354 C540.398749,504.003394 534.815741,514.242014 533.646146,532.450446 C532.847094,544.914403 534.145035,561.22457 541.719461,581.060084 C543.133818,580.499026 544.440623,579.697856 545.582232,578.691912 C544.463886,570.678922 544.155959,562.573621 544.663116,554.498877 C545.770609,536.985993 549.89421,533.417173 551.662059,515.293615 C553.21462,499.399535 551.579256,486.415987 550.786415,480.394122 C548.34786,461.862758 545.03573,461.481863 544.969488,450.37795 C544.868054,433.289432 552.680539,427.168203 556.975957,410.887017 C559.853369,400.025303 561.379019,383.81657 554.173067,361.579761 Z"
                        id="Path"
                        fill="url(#linearGradient-9)"
                        opacity="0.3"
                        style="mix-blend-mode: multiply;"
                      ></path>
                      <path
                        d="M480.047612,249.896828 C480.047612,249.896828 473.170803,256.154683 469.161057,265.349982 C463.118491,279.200893 469.624755,291.093508 471.576841,313.713281 C473.717305,338.529411 470.688776,379.866855 463.710534,394.676214 C463.430893,395.277516 463.326842,395.945594 463.410372,396.603459 C465.296216,410.918068 563.734771,407.674252 562.285714,388.569475 C560.64207,366.910219 548.0891,349.947977 548.689423,299.763006 C548.939903,278.648181 553.699019,261.280203 557.932334,249.460041 C537.874064,240.559359 515.643982,237.74353 493.999957,241.361885 C488.844525,243.285078 484.107545,246.182789 480.047612,249.896828 L480.047612,249.896828 Z"
                        id="Path"
                        fill="url(#linearGradient-10)"
                      ></path>
                      <path
                        d="M534.528,304.801583 C523.78428,308.57327 509.531774,319.172084 508.575396,332.747675 C507.105639,353.603739 538.167202,365.040936 534.037391,379.659847 C532.907127,383.644753 529.340377,387.238413 506.091299,395.630521 C496.682782,399.027524 487.94083,401.797292 480.00828,404.088872 C508.461542,408.282855 566.881294,402.159556 562.298135,388.563265 C548.445154,347.47009 546.501348,328.187287 549.391181,302.654909 C544.34562,302.424231 539.302092,303.152663 534.528,304.801583 L534.528,304.801583 Z"
                        id="Path"
                        fill="url(#linearGradient-11)"
                        opacity="0.3"
                        style="mix-blend-mode: multiply;"
                      ></path>
                      <path
                        d="M500.707019,347.4763 C518.180571,365.214823 543.127116,370.801971 562.304345,361.927535 C588.940075,349.604343 600.743677,315.795783 594.533434,293.925378 C584.164399,257.415362 554.734059,241.204559 540.504323,250.931869 C530.209811,257.970144 506.87172,278.960764 519.139019,292.583966 C530.16841,304.828494 547.105811,301.735793 551.711741,314.210101 C555.162566,323.552376 548.494836,332.967103 547.923493,333.751664 C540.506394,343.89506 524.343202,347.347955 509.059795,340.375923 L500.707019,347.4763 Z"
                        id="Path"
                        fill="url(#linearGradient-12)"
                      ></path>
                      <path
                        d="M466.109757,316.903276 C467.533973,312.332537 472.156464,309.991276 475.793596,309.484106 C479.352065,308.987287 485.218674,309.796688 487.553725,314.4523 C489.73766,318.79947 488.021563,324.895858 482.999547,328.195567 C482.29158,326.442208 481.02676,324.136138 478.795213,323.434381 C474.694383,322.148861 471.135914,327.49381 468.107385,326.096505 C465.691601,324.982801 465.066437,320.258877 466.109757,316.903276 Z"
                        id="Path"
                        fill="url(#linearGradient-13)"
                      ></path>
                      <path
                        d="M482.889833,344.609238 L496.335008,346.946359 C497.556971,347.160563 498.805402,346.752554 499.66502,345.858052 C500.524639,344.963551 500.882692,343.699886 500.620075,342.487405 L495.728474,319.741357 C495.376265,318.094647 493.963388,316.888823 492.28179,316.799772 L476.182771,315.938618 C474.93809,315.870829 473.741958,316.429924 472.995641,317.42834 C472.249325,318.426757 472.051693,319.732231 472.469046,320.906812 L480.01242,342.176893 C480.460792,343.448591 481.561238,344.378825 482.889833,344.609238 Z"
                        id="Path"
                        fill="url(#linearGradient-14)"
                      ></path>
                      <path
                        d="M506.35834,342.667502 C505.254987,334.747373 501.915946,332.675222 500.707019,332.085249 C498.68041,331.09782 497.682631,331.86582 490.607094,331.751966 C484.289208,331.652602 482.790469,331.004667 481.991418,332.085249 C480.478189,334.132559 483.58952,339.514769 487.114868,342.667502 C492.056151,347.091265 498.18566,347.47009 500.707019,347.4763 L506.35834,342.667502 Z"
                        id="Path"
                        fill="url(#linearGradient-15)"
                      ></path>
                      <path
                        d="M507.12841,218.19561 C508.010264,230.121346 511.624625,236.749745 514.769078,238.209152 C517.731364,239.583686 519.565456,238.209152 525.83159,240.805033 C527.402782,241.457109 527.733995,242.732279 527.632561,243.636904 C527.038447,248.936311 500.189499,246.063039 495.579429,244.847901 C495.326879,244.781659 492.014749,244.133723 491.929876,243.736268 C491.625574,242.287211 499.483601,241.927017 501.218329,237.813766 C501.920086,236.157702 502.253369,233.942715 499.411148,229.672138 C501.338394,226.057777 505.203235,221.809971 507.12841,218.19561 Z"
                        id="Path"
                        fill="url(#linearGradient-16)"
                      ></path>
                      <path
                        d="M492.509499,220.549292 C490.354544,217.825066 490.110275,212.983146 492.445326,209.863535 C494.453305,207.172429 497.703332,206.727362 499.649208,206.456181 C505.286038,205.667481 512.483709,207.859696 515.08166,213.003847 C516.625941,216.053076 513.597412,222.526219 513.127504,223.699955 C512.593423,225.014456 511.581154,225.486435 510.659968,226.494564 C509.380658,227.889799 507.38096,230.110995 504.116442,233.82265 C503.769807,232.516538 503.30917,231.243381 502.739838,230.017842 C502.485218,229.46927 501.462598,227.326737 499.949369,225.573378 C496.922911,222.04596 494.550598,223.126543 492.509499,220.549292 Z"
                        id="Path"
                        fill="url(#linearGradient-17)"
                      ></path>
                      <path
                        d="M508.821736,230.651287 C508.821736,230.651287 505.250846,236.836688 497.837887,236.532386 C491.203278,236.257066 489.878426,221.420796 494.035148,218.168699 C495.422102,217.083977 498.239482,216.578877 500.553833,217.16885 C501.922156,217.516624 502.396205,218.069335 504.640173,218.595136 C506.710253,219.081605 507.285736,218.839405 507.919181,219.346575 C508.712022,219.98209 509.320625,221.571912 508.126189,225.945993 C509.368237,224.635632 510.864906,224.109831 511.951698,224.59009 C512.324132,224.781885 512.636439,225.072703 512.854253,225.430543 C513.820981,227.105238 512.322243,229.309874 508.821736,230.651287 Z"
                        id="Path"
                        fill="url(#linearGradient-18)"
                      ></path>
                      <path
                        d="M508.198642,218.45023 C507.883989,218.69657 508.890049,219.866165 509.001833,221.555351 C509.221261,224.828149 506.000216,228.837896 502.625984,229.251912 C500.632496,229.496181 500.052873,228.303815 496.740744,228.032634 C495.12435,227.905605 493.498043,228.038393 491.923666,228.42595 C490.971429,232.042381 492.03338,235.60085 494.474005,237.205163 C497.103008,238.93368 500.377876,237.770295 501.74827,237.281756 C502.665315,236.956753 505.60069,235.919642 507.082868,233.168505 C508.627148,230.303513 507.004205,228.637098 508.807245,226.678801 C509.718081,225.691373 510.933218,225.244235 512.080043,223.348041 C512.327069,222.940867 512.542307,222.515236 512.723838,222.074942 C510.97048,220.298812 508.651989,218.094176 508.198642,218.45023 Z"
                        id="Path"
                        fill="url(#linearGradient-19)"
                      ></path>
                      <path
                        d="M494.362221,229.696979 C494.362221,229.696979 495.811278,230.409087 498.278814,230.212429 C498.400949,230.212429 498.533434,230.2352 498.549995,230.297303 C498.612097,230.529152 497.051256,231.620084 495.579429,231.24333 C494.534038,230.976289 493.703935,230.001281 493.838491,229.759082 C493.894383,229.657648 494.130372,229.657648 494.362221,229.696979 Z"
                        id="Path"
                        fill="url(#linearGradient-20)"
                      ></path>
                      <path
                        d="M88.1357628,523.747826 C85.5378113,529.910456 80.6958922,538.464031 75.5393208,548.319686 L185.423353,548.319686 C168.639137,517.289173 146.68179,485.325055 163.791008,424.735858 C171.818782,396.307438 196.634911,344.774845 179.088906,315.346575 C159.098135,281.811265 131.996636,301.477033 120.557369,274.928246 C102.673941,233.452106 61.5849057,208.749831 25.2094447,235.911362 C-10.6857574,262.72719 1.817531,339.901874 65.4166253,417.10347 C104.764722,477.653335 101.701003,491.576699 88.1357628,523.747826 Z"
                        id="Path"
                        fill="url(#linearGradient-21)"
                      ></path>
                      <g
                        id="Group"
                        style="mix-blend-mode: soft-light;"
                        transform="translate(4.657682, 199.366155)"
                        fill="#FCFDFE"
                      >
                        <path
                          d="M127.690868,342.588032 C126.419838,328.339666 124.500873,314.966943 122.468054,300.80759 L121.791137,296.085736 C120.393833,289.328992 119.197326,282.63021 118.042221,276.148787 C115.429779,261.515385 112.964313,247.693456 108.339752,233.310534 C108.167935,232.45766 108.04166,231.621348 107.909175,230.735353 C107.435127,227.57434 106.944518,224.305682 104.655008,221.44483 L104.594976,221.320625 C85.9083558,144.415051 51.0440539,70.0763774 0.970867925,0.370544474 L1.48838814,0 C51.584345,69.7513747 86.4859084,144.141801 105.199439,221.103267 C107.559332,224.086253 108.080992,227.568129 108.54262,230.642199 C108.673035,231.517844 108.79724,232.347946 108.956636,233.151137 C113.583267,247.54027 116.052873,261.38083 118.669456,276.037003 C119.824561,282.512216 121.018997,289.208927 122.420442,295.978092 L123.099429,300.716507 C125.132248,314.88414 127.053283,328.267213 128.324313,342.53214 L127.690868,342.588032 Z"
                          id="Path"
                        ></path>
                        <path
                          d="M116.959569,273.546695 C110.929423,236.769639 124.037175,190.149348 136.095396,157.514523 C149.153466,122.174102 163.83448,95.1678275 163.973175,94.898717 L164.532097,95.2030189 C164.385121,95.4721294 149.731019,122.445283 136.689509,157.744302 C124.651989,190.308744 111.577358,236.8069 117.580593,273.443191 L116.959569,273.546695 Z"
                          id="Path"
                        ></path>
                        <path
                          d="M68.9792345,116.866415 C60.4049596,78.1973046 60.3614879,35.6281617 60.3490674,21.6426954 C60.3490674,18.9681509 60.3490674,17.2003019 60.2828248,16.8649488 L60.9038491,16.7531644 C60.9721617,17.1278491 60.9763019,18.5230836 60.978372,21.6426954 C60.9928625,35.6136712 61.0363342,78.1289919 69.5961186,116.72979 L68.9792345,116.866415 Z"
                          id="Path"
                        ></path>
                        <path
                          d="M92.0916873,177.337617 C74.0240216,145.570156 0.736948787,125.69531 0,125.498652 L0.163536388,124.877628 C0.904625337,125.084636 74.4504582,145.021585 92.6485391,177.018825 L92.0916873,177.337617 Z"
                          id="Path"
                        ></path>
                      </g>
                      <path
                        d="M97.407655,443.082985 C97.9996981,493.566047 122.347989,476.930877 144.800086,481.913562 C170.713358,519.404796 173.160194,554.190435 134.466243,584.231448 L91.3547385,577.783146 C75.3592237,577.042057 56.5918706,572.152526 57.6496819,550.853464 C58.8482588,526.766004 64.5451213,511.466036 37.3628895,499.635524 C10.1806577,487.805012 -1.50494879,466.220279 9.50581132,441.67326 C21.0982642,415.83451 -6.08603774,381.0054 13.7763881,363.693314 C48.3757197,333.521885 96.7907709,390.517421 97.407655,443.082985 Z"
                        id="Path"
                        fill="url(#linearGradient-22)"
                      ></path>
                      <g
                        id="Group"
                        style="mix-blend-mode: soft-light;"
                        transform="translate(0.000000, 349.747179)"
                        fill="#FCFDFE"
                      >
                        <path
                          d="M108.109973,183.682415 C90.0866774,163.958286 74.5232395,142.12012 61.7608625,118.646685 C48.8932399,94.9918706 39.0872668,70.0184151 32.6037736,44.4529164 C28.9035155,29.8710081 26.2996734,15.0326372 24.8140593,0.0621024259 L25.4619946,0 C26.9461778,14.9395547 29.5444606,29.7473451 33.2351482,44.2997305 C39.6979407,69.811407 49.485283,94.7227601 62.3259946,118.342383 C75.063527,141.768228 90.5956173,163.562507 108.581951,183.247698 L108.109973,183.682415 Z"
                          id="Path"
                        ></path>
                        <path
                          d="M61.7091105,211.409078 L61.4130889,210.829456 C69.4201617,206.749326 78.8659407,203.569682 89.4854555,201.375396 C94.4153383,200.346356 99.4107278,199.660891 104.43558,199.323946 L104.476981,199.973951 C99.484937,200.310266 94.5221434,200.991569 89.6241509,202.012981 C79.0543181,204.196916 69.658221,207.35793 61.7091105,211.409078 Z"
                          id="Path"
                        ></path>
                        <path
                          d="M70.1529704,133.050307 C47.8913208,111.521466 0.50509973,113.485973 0.0310512129,113.510814 L0,112.858739 C0.48025876,112.838038 48.1418005,110.85076 70.6063181,132.582469 L70.1529704,133.050307 Z"
                          id="Path"
                        ></path>
                        <path
                          d="M42.7036981,76.851752 C36.0401078,42.4884097 61.7877736,2.79874933 62.0486038,2.4012938 L62.593035,2.75941779 C62.3322049,3.15480323 36.7315148,42.6353854 43.341283,76.7275472 L42.7036981,76.851752 Z"
                          id="Path"
                        ></path>
                      </g>
                      <path
                        d="M323.036119,387.499243 C322.386113,442.940149 295.646879,424.671686 270.988075,430.142909 C242.532744,471.316818 239.851989,509.51602 282.338329,542.506898 L329.681078,535.423082 C347.247784,534.60747 367.85958,529.23768 366.696194,505.847836 C365.379623,479.394273 359.123838,462.593497 388.982685,449.601669 C418.841531,436.609842 431.667752,412.905346 419.57641,385.940473 C406.853693,357.565874 436.698049,319.31699 414.887677,300.305367 C376.872712,267.177863 323.704755,329.770898 323.036119,387.499243 Z"
                        id="Path"
                        fill="url(#linearGradient-23)"
                      ></path>
                      <g
                        id="Group"
                        style="mix-blend-mode: soft-light;"
                        transform="translate(310.746049, 285.001260)"
                        fill="#FCFDFE"
                      >
                        <path
                          d="M0.52787062,201.712819 C20.3198315,180.052745 37.4110629,156.071637 51.4270189,130.29503 C65.5573908,104.305164 76.3280216,76.8869434 83.4387493,48.818717 C87.5007825,32.8044356 90.3599412,16.508892 91.9923235,0.0683126685 L91.2802156,0 C89.6513557,16.4057943 86.797725,32.666784 82.7432022,48.6469003 C75.646965,76.6633747 64.8991051,104.019493 50.7977143,129.957606 C36.8096402,155.683928 19.7524852,179.618441 0,201.236701 L0.52787062,201.712819 Z"
                          id="Path"
                        ></path>
                        <path
                          d="M51.4829111,232.161639 L51.8079137,231.524054 C43.0162803,227.044399 32.6431051,223.550102 20.9802695,221.140528 C15.5688216,220.012769 10.0859234,219.260228 4.57073854,218.88828 L4.52312668,219.602458 C10.005667,219.972178 15.4560795,220.720572 20.8353639,221.842286 C32.436097,224.239439 42.7471698,227.710965 51.4829111,232.161639 Z"
                          id="Path"
                        ></path>
                        <path
                          d="M42.2110189,146.110447 C66.6586739,122.461844 118.696367,124.623008 119.218027,124.649919 L119.253218,123.935741 C118.725348,123.91297 66.3833531,121.731105 41.7141995,145.594997 L42.2110189,146.110447 Z"
                          id="Path"
                        ></path>
                        <path
                          d="M72.3555364,84.3868464 C79.6732722,46.6596226 51.3980377,3.0616496 51.1123666,2.61865229 L50.5141132,3.01196765 C50.7997844,3.44461456 78.9135526,46.8024582 71.653779,84.2419407 L72.3555364,84.3868464 Z"
                          id="Path"
                        ></path>
                      </g>
                      <path
                        d="M331.482049,39.8063917 C351.683278,210.542521 371.885197,379.497691 392.087806,546.671901 C392.994501,554.165594 387.815159,560.793993 380.569876,561.412947 C299.381305,569.113648 218.192733,576.984095 137.004162,585.024289 C122.513596,585.728117 114.568625,577.634101 113.637089,569.533874 C92.8438167,389.068365 72.0505445,206.714252 51.2572722,22.4715346 C50.3236658,14.1912111 57.3350296,7.08462353 71.8173154,7.79259118 C153.406102,13.6095184 234.994199,19.3498526 316.581606,25.0135939 C323.876571,25.4959227 330.577423,32.1491626 331.482049,39.8063917 Z"
                        id="Path"
                        fill="#26264F"
                      ></path>
                      <path
                        d="M342.759849,39.4565481 C363.088043,210.937907 383.416237,380.615535 403.744431,548.489432 C404.657337,556.010036 399.446943,562.675696 392.151978,563.298791 C307.847245,570.43781 223.544582,577.718284 139.243989,585.140214 C131.549499,585.823341 124.478102,579.731093 123.540356,571.589464 C102.618739,390.298683 81.6950512,207.096526 60.7692938,21.9829955 C59.8294771,13.6736909 65.4062749,7.28542137 73.1525175,7.81950223 C158.025833,13.4777233 242.899148,19.0710817 327.772464,24.5995777 C335.10469,25.0860467 341.846943,31.7579173 342.759849,39.4565481 Z"
                        id="Path"
                        fill="url(#linearGradient-24)"
                      ></path>
                      <path
                        d="M337.859968,67.512354 C356.689423,226.38692 375.518879,383.713066 394.348334,539.490791 C395.199137,546.529066 390.330307,552.749659 383.517671,553.30444 C304.234954,559.790694 224.950857,566.397702 145.66538,573.125464 C138.5029,573.746489 131.917973,568.035136 131.042329,560.47313 C111.696733,393.024289 92.3504474,223.940774 73.0034717,53.2225858 C72.1298976,45.4991141 77.3195903,39.5207206 84.5276119,39.9492273 C164.304388,44.5917286 244.083235,49.1879982 323.864151,53.7380359 C330.711978,54.1292812 337.011235,60.3353836 337.859968,67.512354 Z"
                        id="Path"
                        fill="url(#linearGradient-25)"
                      ></path>
                      <path
                        d="M323.864151,53.7380359 C245.034092,49.2459605 166.201962,44.704203 87.3677628,40.1127637 C90.0177134,55.5854788 94.6717636,70.6471211 101.212464,84.9175939 C127.361725,141.63781 165.776216,144.771912 180.805003,194.217863 C196.289208,245.141853 161.369013,261.081475 178.42855,307.072462 C196.941283,356.961411 242.340226,349.749249 266.336604,404.484257 C287.018782,451.6614 260.393402,473.227502 281.779407,501.896052 C305.221003,533.31988 348.587127,522.665173 393.598965,533.307459 C375.020679,379.545993 356.441013,224.280958 337.859968,67.512354 C337.011235,60.3353836 330.711978,54.1292812 323.864151,53.7380359 Z"
                        id="Path"
                        fill="url(#linearGradient-26)"
                        opacity="0.35"
                        style="mix-blend-mode: multiply;"
                      ></path>
                      <path
                        d="M208.713833,32.7929578 C209.034695,35.5544456 207.177833,37.6700683 204.573671,37.5189524 C201.969509,37.3678365 199.580636,34.9851734 199.259774,32.209195 C198.938911,29.4332165 200.797844,27.3155238 203.412356,27.4873405 C206.026868,27.6591572 208.39297,30.0293998 208.713833,32.7929578 Z"
                        id="Path"
                        fill="#DE8BDF"
                      ></path>
                      <ellipse
                        id="Oval"
                        fill="url(#linearGradient-27)"
                        cx="237.194005"
                        cy="164.804084"
                        rx="18.2456927"
                        ry="21.5267709"
                      ></ellipse>
                      <ellipse
                        id="Oval"
                        fill="url(#linearGradient-27)"
                        cx="309.824863"
                        cy="164.804084"
                        rx="18.2456927"
                        ry="21.5267709"
                      ></ellipse>
                      <ellipse
                        id="Oval"
                        fill="#D8DEE8"
                        cx="273.308636"
                        cy="164.804084"
                        rx="18.5065229"
                        ry="21.5267709"
                      ></ellipse>
                      <ellipse
                        id="Oval"
                        fill="url(#linearGradient-27)"
                        cx="382.45572"
                        cy="164.804084"
                        rx="18.2456927"
                        ry="21.5267709"
                      ></ellipse>
                      <ellipse
                        id="Oval"
                        fill="#D8DEE8"
                        cx="345.939493"
                        cy="164.804084"
                        rx="18.5065229"
                        ry="21.5267709"
                      ></ellipse>
                      <ellipse
                        id="Oval"
                        fill="#D8DEE8"
                        cx="418.57035"
                        cy="164.804084"
                        rx="18.5065229"
                        ry="21.5267709"
                      ></ellipse>
                      <ellipse
                        id="Oval"
                        fill="#D8DEE8"
                        cx="200.677779"
                        cy="164.804084"
                        rx="18.5065229"
                        ry="21.5267709"
                      ></ellipse>
                      <polygon
                        id="Path"
                        fill="url(#linearGradient-28)"
                        points="182.566642 167.718758 474.802027 167.718758 333.194005 54.2700467 69.3435687 37.817044"
                      ></polygon>
                      <polygon
                        id="Path"
                        fill="#F4F7FA"
                        points="69.3435687 37.817044 182.566642 167.718758 219.184302 167.718758 99.8006685 39.7173782"
                      ></polygon>
                      <polygon
                        id="Path"
                        fill="#F4F7FA"
                        points="132.501736 41.7564079 255.267881 167.718758 291.436334 167.718758 165.445003 43.8099281"
                      ></polygon>
                      <polygon
                        id="Path"
                        fill="#F4F7FA"
                        points="198.634609 45.880009 327.693801 167.718758 364.03821 167.718758 232.074695 47.9645804"
                      ></polygon>
                      <polygon
                        id="Path"
                        fill="#F4F7FA"
                        points="299.722868 52.1834052 265.769402 50.0657125 400.471633 167.718758 436.992 167.718758"
                      ></polygon>
                      <path
                        d="M437.027191,167.718758 C438.236119,178.224419 445.849876,186.328785 455.086577,186.328785 C464.323278,186.328785 471.937035,178.224419 473.145962,167.718758 L437.027191,167.718758 Z"
                        id="Path"
                        fill="url(#linearGradient-29)"
                      ></path>
                      <g
                        id="Group"
                        opacity="0.8"
                        transform="translate(143.454820, 203.340600)"
                      >
                        <g
                          opacity="0.35"
                          style="mix-blend-mode: multiply;"
                          transform="translate(0.000000, 171.096800)"
                          id="Path"
                        >
                          <path
                            d="M199.661082,45.2267609 C200.075099,50.1059414 196.51663,54.2109118 191.714042,54.4096396 L15.7240475,61.6300816 C10.5488453,61.8370897 5.80421996,57.9163565 5.1293736,52.8487986 L0.0825164542,14.9663188 C-0.606820473,9.79111665 3.09862427,5.45429724 8.3628399,5.29904118 L187.027379,0.00377433289 C191.900349,-0.139061247 196.183347,3.78995223 196.603573,8.77056679 L199.661082,45.2267609 Z"
                            fill="url(#linearGradient-30)"
                          ></path>
                          <path
                            d="M202.973212,84.6348902 C203.374808,89.4188471 199.85567,93.4762056 195.106905,93.7101247 L21.0462253,102.28854 C15.9310555,102.53902 11.2423224,98.7300708 10.5798965,93.7660169 L10.081007,90.0129603 C9.41651106,85.0261355 13.0557132,80.78868 18.2019342,80.5568309 L193.293514,72.7008741 C198.07333,72.493866 202.267314,76.2200115 202.67305,81.018459 L202.973212,84.6348902 Z"
                            fill="url(#linearGradient-31)"
                          ></path>
                        </g>
                        <g
                          opacity="0.3"
                          style="mix-blend-mode: multiply;"
                          transform="translate(5.447737, 2.056117)"
                        >
                          <path
                            d="M159.725798,72.0797992 L6.57293543,73.2888916 C3.99568475,73.3094272 1.6544233,71.3821819 1.34598125,68.9829582 L0.0335499813,58.7422682 C-0.274892067,56.3285539 1.5778303,54.3702574 4.17371171,54.3702574 L158.140116,54.3702574 C160.443366,54.4057174 162.357473,56.155428 162.59907,58.4462466 L163.447803,67.9955296 C163.561182,69.046162 163.218543,70.0949701 162.506763,70.8760282 C161.794982,71.6570864 160.782415,72.0953871 159.725798,72.0797992 L159.725798,72.0797992 Z"
                            id="Path"
                            fill="url(#linearGradient-32)"
                          ></path>
                          <path
                            d="M13.1744233,77.0583436 L32.7346174,126.498085 C33.9518249,129.574225 37.2163424,131.648446 40.6485365,131.536662 L140.873572,128.257654 C144.011814,128.15622 146.545593,125.995055 147.025852,123.016209 L154.66445,75.7169312 L13.1744233,77.0583436 Z M57.1263802,123.136274 C57.3499489,125.071799 55.8574206,126.690602 53.7873397,126.754775 L50.21024,126.864489 C48.1401591,126.928662 46.2563856,125.405082 46.0245365,123.461276 L41.4703586,85.1916914 C41.2343694,83.2085539 42.7538087,81.5794002 44.8611511,81.5566294 L48.4879327,81.5129148 C50.5828546,81.4903868 52.4666281,83.0719285 52.6964071,85.0467857 L57.1263802,123.136274 Z M76.9142831,122.554581 C77.1212912,124.473546 75.6536039,126.073718 73.6187144,126.142031 L70.0995769,126.251745 C68.0564071,126.313848 66.2181753,124.802689 65.9987467,122.875443 L61.6743478,84.9287911 C61.448709,82.9622143 62.9495176,81.3475512 65.0216686,81.3227102 L68.5842777,81.2830878 C70.6543586,81.2585377 72.4905203,82.827659 72.7078788,84.7838854 L76.9142831,122.554581 Z M96.3730432,121.983239 C96.5800513,123.887713 95.1309947,125.479605 93.1209462,125.541708 L89.6618411,125.647282 C87.6517926,125.709384 85.8508222,124.210646 85.6417441,122.297891 L81.5347036,84.670031 C81.3276955,82.7200148 82.8036632,81.1177722 84.846833,81.0950013 L88.3494098,81.0553766 C90.376019,81.0308288 92.1831996,82.5875296 92.3902077,84.5271954 L96.3730432,121.983239 Z M115.506801,121.422247 C115.699318,123.31016 114.264752,124.887562 112.294035,124.941384 L108.892892,125.044888 C106.918035,125.106991 105.152256,123.620672 104.959739,121.722408 L101.059706,84.415411 C100.852698,82.4819555 102.320386,80.8962736 104.322154,80.8714326 L107.766768,80.8297824 C109.760256,80.8072601 111.532245,82.3515404 111.726833,84.2746455 L115.506801,121.422247 Z M134.323836,120.869535 C134.506003,122.732608 133.081787,124.307939 131.152472,124.367972 L127.807221,124.469406 C125.863415,124.529438 124.132828,123.05554 123.94445,121.173837 L120.255566,84.1628612 C120.063049,82.2459663 121.497615,80.6727048 123.476612,80.6437237 L126.863264,80.6041412 C128.823631,80.5816213 130.560429,82.111411 130.744666,84.0200256 L134.323836,120.869535 Z"
                            id="Shape"
                            fill="url(#linearGradient-33)"
                          ></path>
                          <path
                            d="M27.4434907,49.2054056 C25.2885365,51.1657722 21.6182831,50.9256428 19.2439004,48.6609744 C16.8695176,46.3963059 16.6873505,42.9496213 18.8588653,40.9830445 C21.0303802,39.0164676 24.7089139,39.2793679 27.0750163,41.5564568 C29.4411187,43.8335458 29.5984449,47.2388288 27.4434907,49.2054056 Z"
                            id="Path"
                            fill="url(#linearGradient-34)"
                          ></path>
                          <path
                            d="M72.1944988,0.616467631 C71.3147144,-0.277807302 69.7104017,-0.190863905 68.5987683,0.823475717 L23.5475985,41.6496105 C22.4173343,42.6846509 22.2455176,44.2206509 23.1625635,45.0983652 C24.0796093,45.9760795 25.7377441,45.8580849 26.8659381,44.8333949 L71.7866928,4.03624122 C72.892116,3.04053232 73.0742831,1.5066024 72.1944988,0.616467631 Z"
                            id="Path"
                            fill="url(#linearGradient-35)"
                          ></path>
                          <path
                            d="M136.331814,49.445535 C138.683426,51.3230984 141.954154,51.1015997 143.64127,48.9632062 C145.328386,46.8248126 144.798445,43.5665054 142.457183,41.6827318 C140.115922,39.7989582 136.826563,39.9956159 135.129097,42.1422897 C133.431631,44.2889636 133.973992,47.5638315 136.331814,49.445535 Z"
                            id="Path"
                            fill="url(#linearGradient-36)"
                          ></path>
                          <path
                            d="M83.6379058,0.879367901 C84.3210325,0.0285646661 85.9377656,0.190030973 87.2460567,1.24163205 L138.356353,42.2706347 C139.585981,43.2580633 140.051749,44.7298908 139.391394,45.5599932 C138.731038,46.3900957 137.207458,46.2638207 135.97576,45.2784622 L84.77024,4.32191237 C83.464019,3.27445146 82.9547791,1.73224122 83.6379058,0.879367901 Z"
                            id="Path"
                            fill="url(#linearGradient-37)"
                          ></path>
                        </g>
                        <path
                          d="M202.644069,213.332294 C203.058085,218.211474 199.501686,222.316444 194.697029,222.513102 L18.7091041,229.735614 C13.5339019,229.942622 8.78720648,226.019819 8.11236012,220.952261 L3.06550298,183.080132 C2.37616605,177.90493 6.08368087,173.55776 11.3458264,173.412854 L190.002085,168.117587 C194.875056,167.972682 199.160123,171.903765 199.578279,176.88438 L202.644069,213.332294 Z"
                          id="Path"
                          fill="#FFFFFF"
                        ></path>
                        <path
                          d="M205.960339,252.740423 C206.361934,257.52438 202.842797,261.581738 198.094031,261.815657 L24.033352,270.392002 C18.9181822,270.644552 14.2294491,266.835604 13.5690933,261.87155 L13.0681337,258.118493 C12.4036377,253.131668 16.0428399,248.892143 21.1890609,248.662364 L196.28064,240.796056 C201.060457,240.589048 205.256511,244.315194 205.660177,249.113641 L205.960339,252.740423 Z"
                          id="Path"
                          fill="#FFFFFF"
                        ></path>
                        <path
                          d="M167.231196,72.0803259 L14.0783332,73.2873484 C11.5010825,73.3078838 9.15775096,71.3827086 8.85137899,68.9834849 L7.53894772,58.7407248 C7.22843559,56.3290806 9.08322804,54.368714 11.6791094,54.368714 L165.645514,54.368714 C167.948764,54.404174 169.862871,56.1538846 170.104468,58.4447033 L170.951131,67.9939863 C171.064409,69.0444416 170.722088,70.0930793 170.010847,70.8743759 C169.299606,71.6556725 168.287643,72.094712 167.231196,72.0803259 Z"
                          id="Path"
                          fill="#FFFFFF"
                        ></path>
                        <path
                          d="M20.677751,77.0588704 L40.2400151,126.498612 C41.4551526,129.574752 44.7217402,131.648973 48.1539342,131.535118 L148.378969,128.25818 C151.517212,128.154676 154.048921,125.993512 154.53125,123.014666 L162.169848,75.7153879 L20.677751,77.0588704 Z M64.6297078,123.13473 C64.8553466,125.070256 63.3607483,126.689059 61.2927375,126.753232 L57.7156377,126.862946 C55.6455569,126.927118 53.7597132,125.413889 53.5299342,123.459733 L48.9757563,85.1922181 C48.7397671,83.2090806 50.2592065,81.579927 52.3665488,81.555086 L55.9912604,81.5133957 C58.0882523,81.4888434 59.9720259,83.0703852 60.2018049,85.0452423 L64.6297078,123.13473 Z M84.4196809,122.553037 C84.626689,124.474073 83.1590016,126.072175 81.1241121,126.142558 L77.6049747,126.250202 C75.5618049,126.312304 73.7235731,124.801145 73.5041445,122.8739 L69.1776755,84.9272477 C68.9541068,82.9606709 70.4549154,81.3460078 72.5249962,81.3232369 L76.0896755,81.2815444 C78.1597563,81.2569944 79.9959181,82.8261157 80.2132766,84.7844121 L84.4196809,122.553037 Z M103.878441,121.981695 C104.085449,123.88617 102.636392,125.478062 100.624274,125.540164 L97.1672388,125.645738 C95.1571903,125.707841 93.35622,124.209102 93.1471418,122.298418 L89.0401014,84.6684876 C88.8330933,82.7184714 90.3090609,81.1182989 92.3522307,81.093458 L95.8568776,81.0538794 C97.8814167,81.0313555 99.6906674,82.5859863 99.8976755,84.5277221 L103.878441,121.981695 Z M123.010128,121.420703 C123.202646,123.308617 121.76808,124.888089 119.799433,124.939841 L116.39829,125.045415 C114.421363,125.105447 112.655584,123.619129 112.465136,121.733285 L108.569244,84.4159378 C108.362236,82.4824822 109.829923,80.8968003 111.831692,80.8719593 L115.276306,80.8323788 C117.267724,80.8098569 119.039713,82.3520671 119.236371,84.2772423 L123.010128,121.420703 Z M141.829233,120.867992 C142.011401,122.731064 140.587185,124.306396 138.65787,124.366428 L135.312619,124.469932 C133.368813,124.529965 131.638225,123.053997 131.449848,121.172294 L127.758894,84.1633879 C127.568446,82.246493 129.013363,80.6711615 130.97994,80.6442504 L134.368662,80.6046683 C136.326959,80.582148 138.063756,82.1140078 138.250064,84.0226224 L141.829233,120.867992 Z"
                          id="Shape"
                          fill="#FFFFFF"
                        ></path>
                        <path
                          d="M34.9488884,49.2059324 C32.7939342,51.1662989 29.1236809,50.9261696 26.747228,48.6615011 C24.3707752,46.3968326 24.1927483,42.9480779 26.3642631,40.9835712 C28.5357779,39.0190644 32.2122415,39.2778245 34.5783439,41.5549135 C36.9444464,43.8320024 37.1017725,47.2476359 34.9488884,49.2059324 Z"
                          id="Path"
                          fill="#FFFFFF"
                        ></path>
                        <path
                          d="M79.6978264,0.614924277 C78.8180421,-0.277280575 77.2137294,-0.190337178 76.104166,0.821932363 L31.0529962,41.6646278 C29.9227321,42.6996682 29.7488453,44.2356682 30.6679612,45.1154526 C31.5870771,45.9952369 33.2431418,45.8731022 34.3692658,44.8504822 L79.2900205,4.05125851 C80.3975138,3.04105905 80.5776108,1.50712913 79.6978264,0.614924277 Z"
                          id="Path"
                          fill="#FFFFFF"
                        ></path>
                        <path
                          d="M143.835142,49.4460617 C146.188824,51.321555 149.459551,51.1021264 151.144597,48.9616628 C152.829643,46.8211992 152.303843,43.5670321 149.962581,41.6811884 C147.62132,39.7953448 144.331961,39.9940725 142.634495,42.1428165 C140.937029,44.2915604 141.47732,47.5643582 143.835142,49.4460617 Z"
                          id="Path"
                          fill="#FFFFFF"
                        ></path>
                        <path
                          d="M91.1433035,0.879894627 C91.8264302,0.0270213121 93.4431634,0.1905577 94.7514545,1.2400887 L145.859681,42.2711615 C147.101729,43.25859 147.555077,44.7304175 146.894721,45.56052 C146.234366,46.3906224 144.710786,46.2664175 143.479088,45.281059 L92.2735677,4.3224391 C90.9673466,3.2729081 90.4581068,1.73069786 91.1433035,0.879894627 Z"
                          id="Path"
                          fill="#FFFFFF"
                        ></path>
                      </g>
                      <path
                        d="M145.704712,483.118349 C144.936287,483.117612 144.294002,482.533554 144.220464,481.768656 C142.914243,468.05851 138.444938,455.033562 131.634372,445.088893 C125.602156,436.280699 118.421046,431.024764 112.419881,431.024764 L112.399181,431.024764 C90.5432668,431.068235 85.9725283,481.246995 85.9290566,481.754165 C85.8835731,482.285545 85.5580568,482.752296 85.0751264,482.978596 C84.592196,483.204896 84.0252202,483.156366 83.5877733,482.851286 C83.1503264,482.546206 82.9088669,482.030925 82.9543504,481.499545 C83.1427278,479.31768 87.8211105,428.091459 112.39297,428.039707 L112.419881,428.039707 C119.509908,428.039707 127.409337,433.639276 134.097768,443.403847 C141.187795,453.754252 145.837197,467.28016 147.19103,481.493335 C147.269063,482.313548 146.667709,483.041845 145.847547,483.120419 C145.800625,483.119039 145.753013,483.118349 145.704712,483.118349 Z"
                        id="Path"
                        fill="url(#linearGradient-38)"
                      ></path>
                      <path
                        d="M54.6522049,586.390543 L83.4263288,600.957702 L100.85848,547.462672 L72.1423181,475.746791 L63.9965499,477.744419 L51.6278167,580.743362 C51.3501786,583.074064 52.5583216,585.329926 54.6522049,586.390543 L54.6522049,586.390543 Z"
                        id="Path"
                        fill="url(#linearGradient-39)"
                      ></path>
                      <path
                        d="M100.85434,547.462672 L72.1423181,475.746791 L67.3376604,476.924667 C66.7896104,484.647704 66.8159038,492.40078 67.4163235,500.119923 C69.3414987,524.536526 75.7380485,531.330532 72.6391375,548.365227 C70.0639569,562.528721 64.4374771,564.449756 64.9301563,573.980408 C65.4663073,584.357723 72.70331,593.047923 81.3107062,599.88333 L83.4325391,600.957702 L100.85434,547.462672 Z"
                        id="Path"
                        fill="url(#linearGradient-40)"
                        opacity="0.52"
                        style="mix-blend-mode: multiply;"
                      ></path>
                      <polygon
                        id="Path"
                        fill="url(#linearGradient-41)"
                        points="72.1319677 475.746791 179.407698 475.746791 214.909585 590.363028 83.4221887 600.957702"
                      ></polygon>
                      <path
                        d="M105.362976,485.571394 C104.671088,485.569378 104.071295,485.092114 103.913919,484.418359 C103.607547,483.118349 96.5692722,452.408699 106.50566,437.33644 C109.354092,433.016181 113.336927,430.378898 118.334102,429.497044 C144.023806,424.969777 159.841294,480.147783 160.50165,482.491114 C160.707087,483.278221 160.244384,484.084879 159.461236,484.304927 C158.678089,484.524976 157.862961,484.077363 157.628377,483.298446 C157.473121,482.747804 141.895763,428.356429 118.851623,432.428279 C114.632798,433.171438 111.409682,435.311901 108.998038,438.969734 C99.7592668,452.980041 106.75407,483.42265 106.826523,483.729022 C107.014103,484.531428 106.516841,485.334271 105.714889,485.523783 C105.599868,485.553448 105.481745,485.569429 105.362976,485.571394 L105.362976,485.571394 Z"
                        id="Path"
                        fill="url(#linearGradient-42)"
                      ></path>
                      <g
                        id="Group"
                        opacity="0.3"
                        style="mix-blend-mode: multiply;"
                        transform="translate(89.851860, 475.746791)"
                        fill="url(#linearGradient-43)"
                      >
                        <path
                          d="M89.5558383,0 L36.3361294,0 C33.7112668,2.67040431 31.8502642,5.74654447 31.6722372,9.19943935 C30.8442049,25.4143827 68.1056604,30.7427709 71.7096712,52.967159 C74.3034825,69.0020054 58.3452291,87.500248 44.1051429,95.74331 C29.1032668,104.425229 18.9308895,100.028377 8.78749326,109.668744 C4.32853908,113.904129 1.61466307,119.191116 0,124.691321 L125.053585,114.616237 L89.5558383,0 Z"
                          id="Path"
                        ></path>
                      </g>
                      <circle
                        id="Oval"
                        fill="url(#linearGradient-44)"
                        transform="translate(103.062288, 484.128051) rotate(-22.442753) translate(-103.062288, -484.128051) "
                        cx="103.062288"
                        cy="484.128051"
                        r="4.14992049"
                      ></circle>
                      <circle
                        id="Oval"
                        fill="url(#linearGradient-45)"
                        cx="159.75642"
                        cy="485.409928"
                        r="4.16914286"
                      ></circle>
                    </g>
                  </g>
                </g>
              </svg>